<svg width="36" height="36" viewBox="0 0 36 36" fill="none" xmlns="http://www.w3.org/2000/svg">
<path d="M18 36C27.9411 36 36 27.9411 36 18C36 8.05887 27.9411 0 18 0C8.05887 0 0 8.05887 0 18C0 27.9411 8.05887 36 18 36Z" fill="#40A9FF"/>
<path d="M19.816 15.084L27.131 20.017" stroke="white" stroke-width="1.8" stroke-linecap="round"/>
<path d="M18.157 9.03809L22.1185 11.7002L17.5738 18.4968L13.6122 15.8346L18.157 9.03809Z" stroke="white" stroke-width="1.79728" stroke-linejoin="round"/>
<path d="M12.392 15.0008L18.807 19.3188M16.921 8.21582L23.337 12.5338L16.921 8.21582Z" stroke="white" stroke-width="1.8" stroke-linecap="round"/>
<path d="M21.942 25.8231V26.7231C22.1807 26.7231 22.4096 26.6282 22.5784 26.4595C22.7472 26.2907 22.842 26.0618 22.842 25.8231H21.942ZM10.177 25.8231H9.27698C9.27698 26.0618 9.3718 26.2907 9.54058 26.4595C9.70936 26.6282 9.93828 26.7231 10.177 26.7231V25.8231ZM12.177 23.1931H19.942V21.3931H12.177V23.1931ZM21.042 24.2931V25.8231H22.842V24.2931H21.042ZM21.942 24.9231H10.177V26.7231H21.942V24.9231ZM11.077 25.8231V24.2931H9.27698V25.8231H11.077ZM19.942 23.1931C20.2337 23.1931 20.5135 23.309 20.7198 23.5152C20.9261 23.7215 21.042 24.0013 21.042 24.2931H22.842C22.842 23.5239 22.5364 22.7863 21.9926 22.2425C21.4487 21.6986 20.7111 21.3931 19.942 21.3931V23.1931ZM12.177 21.3931C11.4078 21.3931 10.6702 21.6986 10.1264 22.2425C9.58251 22.7863 9.27698 23.5239 9.27698 24.2931H11.077C11.077 24.0013 11.1929 23.7215 11.3992 23.5152C11.6054 23.309 11.8852 23.1931 12.177 23.1931V21.3931Z" fill="white"/>
</svg>
